<svg width="134px" height="140px" viewBox="0 0 134 140" version="1.1" xmlns="http://www.w3.org/2000/svg" xmlns:xlink="http://www.w3.org/1999/xlink">
    <g id="Page-1" stroke="none" stroke-width="1" fill="none" fill-rule="evenodd">
        <path d="M6,84 L42.4143266,104.056957 C57.4324745,112.328931 75.6417442,112.328931 90.6598921,104.056957 L127.074219,84" id="Path-Copy-3" stroke="#009688" stroke-width="12" stroke-linecap="round"></path>
        <path d="M6,107 L42.4143266,127.056957 C57.4324745,135.328931 75.6417442,135.328931 90.6598921,127.056957 L127.074219,107" id="Path-Copy-3" stroke="#009688" stroke-width="12" stroke-linecap="round"></path>
        <path d="M6,61 L42.4143266,81.0569571 C57.4324745,89.3289306 75.6417442,89.3289306 90.6598921,81.0569571 L127.074219,61" id="Path-Copy-4" stroke="#009688" stroke-width="12" stroke-linecap="round"></path>
        <path d="M81.6865417,9.89973749 C73.6713807,5.39279584 59.944995,5.39279584 51.9298341,9.89973749 L13.3217084,31.6091667 C7.55943052,34.8493075 7.55943052,37.948708 13.3217084,41.1888488 L51.9298341,62.898278 C59.944995,67.4052197 73.6713807,67.4052197 81.6865417,62.898278 L120.294667,41.1888488 C126.056945,37.948708 126.056945,34.8493075 120.294667,31.6091667 L81.6865417,9.89973749 Z" id="Rectangle" stroke="#009688" stroke-width="12"></path>
    </g>
</svg>
